<svg width="24" height="21" viewBox="0 0 24 21" fill="none" xmlns="http://www.w3.org/2000/svg">
<path fill-rule="evenodd" clip-rule="evenodd" d="M0 19.3889C0 19.0942 0.114935 18.8116 0.31952 18.6032C0.524105 18.3948 0.801582 18.2778 1.09091 18.2778H22.9091C23.1984 18.2778 23.4759 18.3948 23.6805 18.6032C23.8851 18.8116 24 19.0942 24 19.3889C24 19.6836 23.8851 19.9662 23.6805 20.1746C23.4759 20.3829 23.1984 20.5 22.9091 20.5H1.09091C0.801582 20.5 0.524105 20.3829 0.31952 20.1746C0.114935 19.9662 0 19.6836 0 19.3889ZM0 10.5C0 10.2053 0.114935 9.9227 0.31952 9.71433C0.524105 9.50595 0.801582 9.38889 1.09091 9.38889H22.9091C23.1984 9.38889 23.4759 9.50595 23.6805 9.71433C23.8851 9.9227 24 10.2053 24 10.5C24 10.7947 23.8851 11.0773 23.6805 11.2857C23.4759 11.4941 23.1984 11.6111 22.9091 11.6111H1.09091C0.801582 11.6111 0.524105 11.4941 0.31952 11.2857C0.114935 11.0773 0 10.7947 0 10.5ZM0 1.61111C0 1.31643 0.114935 1.03381 0.31952 0.825437C0.524105 0.617063 0.801582 0.5 1.09091 0.5H22.9091C23.1984 0.5 23.4759 0.617063 23.6805 0.825437C23.8851 1.03381 24 1.31643 24 1.61111C24 1.9058 23.8851 2.18841 23.6805 2.39679C23.4759 2.60516 23.1984 2.72222 22.9091 2.72222H1.09091C0.801582 2.72222 0.524105 2.60516 0.31952 2.39679C0.114935 2.18841 0 1.9058 0 1.61111Z" fill="white"/>
</svg>
