<svg width="27" height="48" viewBox="0 0 27 48" fill="none" xmlns="http://www.w3.org/2000/svg">
<path fill-rule="evenodd" clip-rule="evenodd" d="M0.566445 0.542314C0.745546 0.370408 0.958312 0.23402 1.19256 0.140961C1.4268 0.0479015 1.67792 0 1.93152 0C2.18513 0 2.43625 0.0479015 2.67049 0.140961C2.90474 0.23402 3.1175 0.370408 3.29661 0.542314L26.4336 22.6936C26.6131 22.865 26.7556 23.0687 26.8528 23.293C26.95 23.5173 27 23.7577 27 24.0005C27 24.2433 26.95 24.4837 26.8528 24.708C26.7556 24.9322 26.6131 25.1359 26.4336 25.3074L3.29661 47.4587C2.93456 47.8053 2.44353 48 1.93152 48C1.41952 48 0.928486 47.8053 0.566445 47.4587C0.204403 47.112 0.00100948 46.6419 0.00100948 46.1517C0.00100948 45.6615 0.204403 45.1914 0.566445 44.8448L22.3422 24.0005L0.566445 3.15616C0.386889 2.98469 0.244431 2.78099 0.147231 2.55673C0.0500313 2.33246 0 2.09204 0 1.84924C0 1.60643 0.0500313 1.36601 0.147231 1.14175C0.244431 0.917487 0.386889 0.713785 0.566445 0.542314Z" fill="white"/>
</svg>
