<svg width="30" height="30" viewBox="0 0 30 30" fill="none" xmlns="http://www.w3.org/2000/svg">
<path d="M22.0205 8.15918H22.033M8.89551 2.53418H21.3955C24.8473 2.53418 27.6455 5.3324 27.6455 8.78418V21.2842C27.6455 24.736 24.8473 27.5342 21.3955 27.5342H8.89551C5.44373 27.5342 2.64551 24.736 2.64551 21.2842V8.78418C2.64551 5.3324 5.44373 2.53418 8.89551 2.53418ZM20.1455 14.2467C20.2998 15.287 20.1221 16.3495 19.6377 17.2829C19.1533 18.2164 18.3869 18.9734 17.4475 19.4463C16.5081 19.9191 15.4436 20.0837 14.4052 19.9166C13.3669 19.7495 12.4077 19.2593 11.6641 18.5156C10.9204 17.772 10.4302 16.8128 10.2631 15.7744C10.096 14.7361 10.2606 13.6715 10.7334 12.7321C11.2062 11.7927 11.9632 11.0264 12.8967 10.542C13.8302 10.0576 14.8927 9.87992 15.933 10.0342C16.9942 10.1915 17.9766 10.686 18.7351 11.4446C19.4937 12.2031 19.9882 13.1855 20.1455 14.2467Z" stroke="white" stroke-width="3.5" stroke-linecap="round" stroke-linejoin="round"/>
</svg>
