<svg width="29" height="34" viewBox="0 0 29 34" fill="none" xmlns="http://www.w3.org/2000/svg">
<g filter="url(#filter0_d_799_138)">
<path d="M22.9148 5.51608C21.4325 4.54956 20.3629 3.0026 20.0292 1.2004C19.9571 0.811125 19.917 0.410101 19.917 0H15.1859L15.1779 18.9613C15.0989 21.085 13.3511 22.7889 11.2088 22.7889C10.5429 22.7889 9.916 22.6229 9.36386 22.3318C8.09777 21.6659 7.23112 20.339 7.23112 18.8123C7.23112 16.6192 9.0157 14.8347 11.2082 14.8347C11.6178 14.8347 12.0103 14.9025 12.3814 15.0184V10.1885C11.9969 10.1356 11.6066 10.1035 11.2082 10.1035C6.40664 10.1035 2.5 14.0097 2.5 18.8123C2.5 21.7583 3.97167 24.3658 6.21814 25.9421C7.63214 26.9359 9.35318 27.5206 11.2088 27.5206C16.0109 27.5206 19.917 23.6139 19.917 18.8123V9.19684C21.7726 10.5286 24.0463 11.3136 26.5 11.3136V6.58191C25.1784 6.58191 23.9475 6.18943 22.9148 5.51608Z" fill="white"/>
</g>
<defs>
<filter id="filter0_d_799_138" x="0.5" y="0" width="28" height="33.5205" filterUnits="userSpaceOnUse" color-interpolation-filters="sRGB">
<feFlood flood-opacity="0" result="BackgroundImageFix"/>
<feColorMatrix in="SourceAlpha" type="matrix" values="0 0 0 0 0 0 0 0 0 0 0 0 0 0 0 0 0 0 127 0" result="hardAlpha"/>
<feOffset dy="4"/>
<feGaussianBlur stdDeviation="1"/>
<feComposite in2="hardAlpha" operator="out"/>
<feColorMatrix type="matrix" values="0 0 0 0 0.440602 0 0 0 0 0.397088 0 0 0 0 0.645017 0 0 0 0.2 0"/>
<feBlend mode="normal" in2="BackgroundImageFix" result="effect1_dropShadow_799_138"/>
<feBlend mode="normal" in="SourceGraphic" in2="effect1_dropShadow_799_138" result="shape"/>
</filter>
</defs>
</svg>
