<svg width="100" height="100" viewBox="0 0 100 100" fill="none" xmlns="http://www.w3.org/2000/svg">
<path d="M72.0998 87.5625C77.0414 82.6361 80.9603 76.7813 83.6311 70.3349C86.3019 63.8885 87.6719 56.9777 87.6623 50C87.6719 43.0223 86.3019 36.1115 83.6311 29.6651C80.9603 23.2187 77.0414 17.3639 72.0998 12.4375L67.6748 16.8563C72.0332 21.2045 75.4898 26.3708 77.8462 32.0586C80.2026 37.7463 81.4124 43.8435 81.4061 50C81.4061 62.9438 76.1561 74.6625 67.6748 83.1438L72.0998 87.5625Z" fill="white"/>
<path d="M63.2562 78.725C67.0342 74.957 70.0303 70.4795 72.0725 65.5499C74.1147 60.6204 75.1627 55.3358 75.1562 50C75.1627 44.6641 74.1147 39.3796 72.0725 34.45C70.0303 29.5205 67.0342 25.043 63.2562 21.275L58.8374 25.6937C62.035 28.8815 64.5707 32.6701 66.2987 36.8415C68.0267 41.0129 68.9128 45.4848 68.9062 50C68.9145 54.5158 68.0297 58.9886 66.3028 63.1611C64.5759 67.3336 62.0409 71.1234 58.8437 74.3125L63.2562 78.725Z" fill="white"/>
<path d="M54.4187 69.8875C57.0304 67.2758 59.102 64.1753 60.5154 60.763C61.9288 57.3507 62.6563 53.6934 62.6562 50C62.6563 46.3066 61.9288 42.6493 60.5154 39.237C59.102 35.8247 57.0304 32.7242 54.4187 30.1125L50 34.5312C52.0312 36.5627 53.6424 38.9743 54.7416 41.6285C55.8408 44.2826 56.4065 47.1273 56.4062 50C56.4065 52.8727 55.8408 55.7174 54.7416 58.3715C53.6424 61.0257 52.0312 63.4373 50 65.4688L54.4187 69.8875ZM41.9813 22.1875C42.5107 22.4426 42.9575 22.8417 43.2704 23.3392C43.5832 23.8367 43.7495 24.4123 43.75 25V75C43.7492 75.588 43.5824 76.1639 43.269 76.6614C42.9555 77.1589 42.508 77.5579 41.978 77.8125C41.4479 78.0671 40.8568 78.1669 40.2725 78.1006C39.6882 78.0343 39.1345 77.8044 38.675 77.4375L23.9062 65.625H9.375C8.5462 65.625 7.75134 65.2958 7.16529 64.7097C6.57924 64.1237 6.25 63.3288 6.25 62.5V37.5C6.25 36.6712 6.57924 35.8763 7.16529 35.2903C7.75134 34.7042 8.5462 34.375 9.375 34.375H23.9062L38.675 22.5625C39.1348 22.1949 39.6891 21.9647 40.2741 21.8984C40.859 21.832 41.4508 21.9322 41.9813 22.1875Z" fill="white"/>
</svg>
