<svg width="390" height="72" viewBox="0 0 390 72" fill="none" xmlns="http://www.w3.org/2000/svg">
<mask id="path-1-inside-1_2_18" fill="white">
<path d="M0 28C0 12.536 12.536 0 28 0H362C377.464 0 390 12.536 390 28V44C390 59.464 377.464 72 362 72H28C12.536 72 0 59.464 0 44V28Z"/>
</mask>
<path fill-rule="evenodd" clip-rule="evenodd" d="M8.29094 63.1782C3.17111 58.2855 0 51.4999 0 44C0 54.5862 5.67233 63.8476 14.1434 68.9106C18.2207 71.3475 22.9464 72.8118 28 72.9831C28.3319 72.9943 28.6653 73 29 73H99.5714C100.124 73 100.571 72.5523 100.571 72C100.571 71.4477 100.124 71 99.5714 71H28C20.3137 71 13.3507 68.0135 8.29094 63.1782ZM290.429 71C289.876 71 289.429 71.4477 289.429 72C289.429 72.5523 289.876 73 290.429 73H361C361.335 73 361.668 72.9943 362 72.9831C367.054 72.8118 371.779 71.3476 375.857 68.9106C384.328 63.8476 390 54.5862 390 44C390 51.4998 386.829 58.2854 381.709 63.1781C376.649 68.0134 369.686 71 362 71H290.429ZM381.709 8.8219C386.829 13.7146 390 20.5002 390 28C390 17.4138 384.328 8.15243 375.857 3.08941C371.779 0.652473 367.054 -0.811832 362 -0.983082C361.668 -0.99433 361.335 -1 361 -1H290.429C289.876 -1 289.429 -0.552285 289.429 0C289.429 0.552285 289.876 1 290.429 1H362C369.686 1 376.649 3.98657 381.709 8.8219ZM99.5714 1C100.124 1 100.571 0.552285 100.571 0C100.571 -0.552285 100.124 -1 99.5714 -1H29C28.6653 -1 28.3319 -0.99433 28 -0.983082C22.9464 -0.811833 18.2207 0.652461 14.1434 3.08938C5.67231 8.15239 0 17.4138 0 28C0 20.5001 3.17111 13.7145 8.29094 8.82179C13.3507 3.98651 20.3137 1 28 1H99.5714Z" fill="white" fill-opacity="0.8" mask="url(#path-1-inside-1_2_18)"/>
<g filter="url(#filter0_d_2_18)">
<mask id="path-3-inside-2_2_18" fill="white">
<path d="M8 28C8 16.9543 16.9543 8 28 8H362C373.046 8 382 16.9543 382 28V44C382 55.0457 373.046 64 362 64H28C16.9543 64 8 55.0457 8 44V28Z"/>
</mask>
<path d="M8 28C8 16.402 17.402 7 29 7H361C372.598 7 382 16.402 382 28C382 17.5066 373.046 9 362 9H28C16.9543 9 8 17.5066 8 28ZM382 44C382 55.598 372.598 65 361 65H29C17.402 65 8 55.598 8 44C8 54.4934 16.9543 63 28 63H362C373.046 63 382 54.4934 382 44ZM8 64V8V64ZM382 8V64V8Z" fill="white" mask="url(#path-3-inside-2_2_18)"/>
</g>
<defs>
<filter id="filter0_d_2_18" x="0" y="0" width="390" height="72" filterUnits="userSpaceOnUse" color-interpolation-filters="sRGB">
<feFlood flood-opacity="0" result="BackgroundImageFix"/>
<feColorMatrix in="SourceAlpha" type="matrix" values="0 0 0 0 0 0 0 0 0 0 0 0 0 0 0 0 0 0 127 0" result="hardAlpha"/>
<feOffset/>
<feGaussianBlur stdDeviation="4"/>
<feComposite in2="hardAlpha" operator="out"/>
<feColorMatrix type="matrix" values="0 0 0 0 1 0 0 0 0 1 0 0 0 0 1 0 0 0 1 0"/>
<feBlend mode="normal" in2="BackgroundImageFix" result="effect1_dropShadow_2_18"/>
<feBlend mode="normal" in="SourceGraphic" in2="effect1_dropShadow_2_18" result="shape"/>
</filter>
</defs>
</svg>
